# This file uses centimeters as units for non-parametric coordinates.

mtllib tin.mtl
g default
v 0.048820 0.000000 -0.015862
v 0.041529 0.000000 -0.030172
v 0.030172 0.000000 -0.041529
v 0.015863 0.000000 -0.048820
v 0.000000 0.000000 -0.051332
v -0.015863 0.000000 -0.048820
v -0.030172 0.000000 -0.041529
v -0.041529 0.000000 -0.030172
v -0.048820 0.000000 -0.015862
v -0.051332 0.000000 0.000000
v -0.048820 0.000000 0.015862
v -0.041529 0.000000 0.030172
v -0.030172 0.000000 0.041529
v -0.015863 0.000000 0.048820
v 0.000000 0.000000 0.051332
v 0.015863 0.000000 0.048820
v 0.030172 0.000000 0.041529
v 0.041529 0.000000 0.030172
v 0.048820 0.000000 0.015862
v 0.051332 0.000000 0.000000
v 0.048268 0.166229 -0.015683
v 0.045037 0.165526 -0.014634
v 0.041059 0.166229 -0.029831
v 0.038311 0.165526 -0.027834
v 0.029831 0.166229 -0.041059
v 0.027835 0.165526 -0.038311
v 0.015683 0.166229 -0.048268
v 0.014634 0.165526 -0.045037
v 0.000000 0.166229 -0.050752
v 0.000000 0.165526 -0.047355
v -0.015683 0.166229 -0.048268
v -0.014634 0.165526 -0.045037
v -0.029831 0.166229 -0.041059
v -0.027835 0.165526 -0.038311
v -0.041059 0.166229 -0.029831
v -0.038311 0.165526 -0.027834
v -0.048268 0.166229 -0.015683
v -0.045037 0.165526 -0.014634
v -0.050752 0.166229 0.000000
v -0.047355 0.165526 0.000000
v -0.048268 0.166229 0.015683
v -0.045037 0.165526 0.014634
v -0.041059 0.166229 0.029831
v -0.038311 0.165526 0.027834
v -0.029831 0.166229 0.041059
v -0.027835 0.165526 0.038311
v -0.015683 0.166229 0.048268
v -0.014634 0.165526 0.045037
v 0.000000 0.166229 0.050752
v 0.000000 0.165526 0.047355
v 0.015683 0.166229 0.048267
v 0.014633 0.165526 0.045037
v 0.029831 0.166229 0.041059
v 0.027835 0.165526 0.038311
v 0.041059 0.166229 0.029831
v 0.038311 0.165526 0.027834
v 0.048268 0.166229 0.015683
v 0.045037 0.165526 0.014634
v 0.050752 0.166229 0.000000
v 0.047355 0.165526 0.000000
v 0.038311 0.002084 -0.027834
v 0.045037 0.002084 -0.014634
v 0.027835 0.002084 -0.038311
v 0.014634 0.002084 -0.045037
v 0.000000 0.002084 -0.047355
v -0.014634 0.002084 -0.045037
v -0.027835 0.002084 -0.038311
v -0.038311 0.002084 -0.027834
v -0.045037 0.002084 -0.014634
v -0.047355 0.002084 0.000000
v -0.045037 0.002084 0.014634
v -0.038311 0.002084 0.027834
v -0.027835 0.002084 0.038311
v -0.014634 0.002084 0.045037
v 0.000000 0.002084 0.047355
v 0.014633 0.002084 0.045037
v 0.027835 0.002084 0.038311
v 0.038311 0.002084 0.027834
v 0.045037 0.002084 0.014634
v 0.047355 0.002084 0.000000
v 0.029389 0.001223 0.040451
v 0.015451 0.001223 0.047553
v 0.000000 0.001223 0.050000
v -0.015451 0.001223 0.047553
v -0.029389 0.001223 0.040451
v -0.040451 0.001223 0.029389
v -0.047553 0.001223 0.015451
v -0.050000 0.001223 0.000000
v -0.047553 0.001223 -0.015451
v -0.040451 0.001223 -0.029389
v -0.029389 0.001223 -0.040451
v -0.015451 0.001223 -0.047553
v 0.000000 0.001223 -0.050000
v 0.015451 0.001223 -0.047553
v 0.029389 0.001223 -0.040451
v 0.040451 0.001223 -0.029389
v 0.047553 0.001223 -0.015451
v 0.050000 0.001223 0.000000
v 0.047553 0.001223 0.015451
v 0.040451 0.001223 0.029389
v 0.050000 0.164074 0.000000
v 0.047553 0.164074 0.015451
v 0.040451 0.164074 0.029389
v 0.029389 0.164074 0.040451
v 0.015451 0.164074 0.047553
v 0.000000 0.164074 0.050000
v -0.015451 0.164074 0.047553
v -0.029389 0.164074 0.040451
v -0.040451 0.164074 0.029389
v -0.047553 0.164074 0.015451
v -0.050000 0.164074 0.000000
v -0.047553 0.164074 -0.015451
v -0.040451 0.164074 -0.029389
v -0.029389 0.164074 -0.040451
v -0.015451 0.164074 -0.047553
v 0.000000 0.164074 -0.050000
v 0.015451 0.164074 -0.047553
v 0.029389 0.164074 -0.040451
v 0.040451 0.164074 -0.029389
v 0.047553 0.164074 -0.015451
vt 0.988270 0.910148
vt 0.980435 0.907603
vt 0.986056 0.872111
vt 0.994294 0.872111
vt 0.970786 0.944462
vt 0.964121 0.939620
vt 0.943554 0.971695
vt 0.938712 0.965030
vt 0.909239 0.989179
vt 0.906694 0.981343
vt 0.871202 0.995203
vt 0.871202 0.986965
vt 0.833165 0.989179
vt 0.835710 0.981343
vt 0.798850 0.971695
vt 0.803693 0.965030
vt 0.771618 0.944462
vt 0.778283 0.939620
vt 0.754134 0.910148
vt 0.761969 0.907603
vt 0.748110 0.872111
vt 0.756348 0.872111
vt 0.754134 0.834073
vt 0.761969 0.836618
vt 0.771618 0.799759
vt 0.778283 0.804601
vt 0.798850 0.772527
vt 0.803693 0.779192
vt 0.833165 0.755042
vt 0.835710 0.762878
vt 0.871202 0.749018
vt 0.871202 0.757256
vt 0.909239 0.755044
vt 0.906694 0.762878
vt 0.943554 0.772527
vt 0.938712 0.779192
vt 0.970786 0.799759
vt 0.964121 0.804601
vt 0.988270 0.834073
vt 0.980435 0.836618
vt 0.396118 0.010082
vt 0.889818 0.399662
vt 0.923159 0.404942
vt 0.780134 0.202090
vt 0.826402 0.420267
vt 0.396118 0.202090
vt 0.856478 0.404942
vt 0.780134 0.240492
vt 0.889818 0.615444
vt 0.396118 0.240492
vt 0.856478 0.610164
vt 0.780134 0.278892
vt 0.953235 0.594839
vt 0.396118 0.278892
vt 0.923159 0.610164
vt 0.780134 0.317294
vt 0.826401 0.594839
vt 0.396118 0.317294
vt 0.977104 0.570970
vt 0.780134 0.355696
vt 0.802533 0.570970
vt 0.396118 0.355696
vt 0.992429 0.540893
vt 0.780134 0.394097
vt 0.787208 0.540893
vt 0.396118 0.394097
vt 0.997709 0.507553
vt 0.780134 0.432499
vt 0.781927 0.507553
vt 0.396118 0.432499
vt 0.992429 0.474213
vt 0.780134 0.470901
vt 0.787208 0.474213
vt 0.396118 0.470901
vt 0.977104 0.444136
vt 0.780134 0.509303
vt 0.802533 0.444136
vt 0.396118 0.509303
vt 0.953235 0.420267
vt 0.780134 0.547704
vt 0.780134 0.010082
vt 0.396118 0.547704
vt 0.396118 0.163688
vt 0.396118 0.125287
vt 0.780134 0.125287
vt 0.780134 0.163688
vt 0.396118 0.086885
vt 0.780134 0.086885
vt 0.396118 0.048483
vt 0.780134 0.048483
vt 0.396118 0.778113
vt 0.780134 0.778113
vt 0.396118 0.739712
vt 0.780134 0.739712
vt 0.396118 0.701310
vt 0.780134 0.701310
vt 0.396118 0.662908
vt 0.780134 0.662908
vt 0.396118 0.624507
vt 0.780134 0.624507
vt 0.396118 0.586106
vt 0.780134 0.586105
vt 0.764850 0.872111
vt 0.770055 0.839246
vt 0.977554 0.872111
vt 0.972349 0.904976
vt 0.785161 0.809599
vt 0.972349 0.839246
vt 0.808690 0.786070
vt 0.957243 0.809599
vt 0.838337 0.770964
vt 0.933714 0.786070
vt 0.871202 0.765758
vt 0.904067 0.770964
vt 0.957243 0.934623
vt 0.770055 0.904976
vt 0.933714 0.958151
vt 0.785161 0.934623
vt 0.904067 0.973258
vt 0.808690 0.958151
vt 0.871202 0.978463
vt 0.838337 0.973258
vt 0.007692 0.162852
vt 0.007692 0.124450
vt 0.010518 0.124450
vt 0.010518 0.162852
vt 0.007691 0.086049
vt 0.010518 0.086048
vt 0.010518 0.047647
vt 0.007691 0.777277
vt 0.010518 0.777277
vt 0.007691 0.738876
vt 0.010518 0.738876
vt 0.007691 0.700474
vt 0.010518 0.700475
vt 0.007692 0.662073
vt 0.010518 0.662073
vt 0.007692 0.623671
vt 0.010518 0.623671
vt 0.007691 0.585269
vt 0.010518 0.585269
vt 0.007692 0.546868
vt 0.010518 0.546868
vt 0.007691 0.508466
vt 0.010518 0.508466
vt 0.007692 0.470065
vt 0.010518 0.470064
vt 0.007692 0.431663
vt 0.010518 0.431663
vt 0.007691 0.393261
vt 0.010518 0.393261
vt 0.007692 0.354860
vt 0.010518 0.354860
vt 0.007691 0.316458
vt 0.010518 0.316458
vt 0.007692 0.278057
vt 0.010518 0.278057
vt 0.007692 0.239655
vt 0.010518 0.239655
vt 0.007692 0.201254
vt 0.010518 0.201254
vt 0.386728 0.316458
vt 0.386728 0.354860
vt 0.386728 0.393261
vt 0.386728 0.431663
vt 0.386728 0.470064
vt 0.386728 0.508466
vt 0.386728 0.546868
vt 0.386728 0.585269
vt 0.386728 0.623671
vt 0.386729 0.662073
vt 0.386728 0.700475
vt 0.386729 0.738876
vt 0.386729 0.777277
vt 0.386728 0.047647
vt 0.386728 0.086048
vt 0.386728 0.124450
vt 0.386728 0.162852
vt 0.386728 0.201254
vt 0.386728 0.239655
vt 0.386728 0.278057
vt 0.391707 0.201254
vt 0.391707 0.239655
vt 0.391707 0.278056
vt 0.391707 0.316458
vt 0.391707 0.354860
vt 0.391707 0.393261
vt 0.391707 0.431663
vt 0.391707 0.470064
vt 0.391707 0.508466
vt 0.391707 0.546868
vt 0.391707 0.585269
vt 0.391707 0.623671
vt 0.391707 0.662072
vt 0.391707 0.700474
vt 0.391707 0.738876
vt 0.391707 0.777277
vt 0.391707 0.086049
vt 0.391707 0.124451
vt 0.391707 0.162852
vt 0.007691 0.047647
vt 0.007691 0.009246
vt 0.010518 0.009246
vt 0.386728 0.009246
vt 0.391707 0.009246
vt 0.391707 0.047647
vn -0.192794 0.979238 0.062641
vn -0.192793 0.979238 0.062642
vn -0.202714 0.979238 -0.000000
vn -0.202714 0.979238 0.000000
vn -0.163998 0.979238 0.119153
vn -0.163998 0.979238 0.119152
vn -0.119148 0.979240 0.163992
vn -0.119149 0.979240 0.163992
vn -0.062639 0.979240 0.192784
vn -0.062640 0.979240 0.192783
vn -0.000000 0.979239 0.202707
vn 0.000000 0.979239 0.202707
vn 0.062639 0.979240 0.192784
vn 0.062641 0.979240 0.192784
vn 0.119148 0.979240 0.163993
vn 0.119148 0.979239 0.163993
vn 0.163996 0.979239 0.119151
vn 0.163996 0.979239 0.119151
vn 0.192792 0.979238 0.062641
vn 0.192792 0.979238 0.062642
vn 0.202715 0.979238 -0.000000
vn 0.202715 0.979238 -0.000000
vn 0.192792 0.979238 -0.062641
vn 0.192792 0.979238 -0.062642
vn 0.163996 0.979239 -0.119151
vn 0.163996 0.979239 -0.119151
vn 0.119148 0.979240 -0.163993
vn 0.119148 0.979239 -0.163993
vn 0.062639 0.979240 -0.192784
vn 0.062641 0.979240 -0.192783
vn -0.000001 0.979238 -0.202714
vn -0.000002 0.979238 -0.202714
vn -0.062645 0.979237 -0.192798
vn -0.062644 0.979237 -0.192799
vn -0.119151 0.979238 -0.164000
vn -0.119152 0.979238 -0.163999
vn -0.163997 0.979239 -0.119152
vn -0.163997 0.979238 -0.119151
vn -0.192791 0.979238 -0.062641
vn -0.192791 0.979238 -0.062642
vn 0.643271 0.736560 -0.209003
vn 0.547209 0.736549 -0.397565
vn 0.547205 0.736549 -0.397571
vn 0.643267 0.736560 -0.209016
vn 0.397579 0.736543 -0.547207
vn 0.397570 0.736543 -0.547213
vn 0.209019 0.736549 -0.643278
vn 0.209013 0.736549 -0.643280
vn 0.000000 0.736556 -0.676376
vn 0.000000 0.736556 -0.676376
vn -0.209020 0.736547 -0.643280
vn -0.209014 0.736547 -0.643282
vn -0.397579 0.736542 -0.547209
vn -0.397573 0.736542 -0.547213
vn -0.547208 0.736552 -0.397562
vn -0.547202 0.736552 -0.397570
vn -0.643268 0.736562 -0.209004
vn -0.643264 0.736562 -0.209017
vn -0.676366 0.736566 -0.000000
vn -0.676366 0.736566 -0.000000
vn -0.643268 0.736562 0.209004
vn -0.643264 0.736562 0.209017
vn -0.547208 0.736552 0.397562
vn -0.547202 0.736552 0.397570
vn -0.397579 0.736542 0.547209
vn -0.397573 0.736542 0.547213
vn -0.209020 0.736547 0.643280
vn -0.209014 0.736547 0.643282
vn -0.000000 0.736556 0.676377
vn -0.000000 0.736556 0.676377
vn 0.209018 0.736545 0.643283
vn 0.209016 0.736545 0.643284
vn 0.397581 0.736537 0.547213
vn 0.397575 0.736537 0.547218
vn 0.547212 0.736546 0.397567
vn 0.547208 0.736546 0.397573
vn 0.643272 0.736558 0.209004
vn 0.643268 0.736558 0.209017
vn 0.676365 0.736566 0.000001
vn 0.676365 0.736566 0.000001
vn -0.951057 0.000000 0.309016
vn -0.809015 0.000000 0.587788
vn -0.809015 0.000000 0.587788
vn -0.951057 0.000000 0.309016
vn -0.587788 0.000000 0.809015
vn -0.587788 0.000000 0.809015
vn -0.309022 0.000000 0.951055
vn -0.309022 0.000000 0.951055
vn 0.000000 0.000000 1.000000
vn 0.000000 0.000000 1.000000
vn 0.309023 0.000000 0.951055
vn 0.309023 0.000000 0.951055
vn 0.587789 0.000000 0.809014
vn 0.587789 0.000000 0.809014
vn 0.809015 0.000000 0.587788
vn 0.809015 0.000000 0.587788
vn 0.951056 0.000000 0.309020
vn 0.951056 0.000000 0.309020
vn 1.000000 0.000000 0.000000
vn 1.000000 0.000000 0.000000
vn 0.951056 0.000000 -0.309020
vn 0.951056 0.000000 -0.309020
vn 0.809015 0.000000 -0.587788
vn 0.809015 0.000000 -0.587788
vn 0.587789 0.000000 -0.809014
vn 0.587789 0.000000 -0.809014
vn 0.309023 0.000000 -0.951055
vn 0.309023 0.000000 -0.951055
vn 0.000000 0.000000 -1.000000
vn 0.000000 0.000000 -1.000000
vn -0.309022 0.000000 -0.951055
vn -0.309022 0.000000 -0.951055
vn -0.587788 0.000000 -0.809015
vn -0.587788 0.000000 -0.809015
vn -0.809016 0.000000 -0.587787
vn -0.809016 0.000000 -0.587787
vn -0.951056 0.000000 -0.309018
vn -0.951056 0.000000 -0.309018
vn -1.000000 0.000000 -0.000002
vn -1.000000 0.000000 -0.000002
vn 0.309017 0.000000 0.951057
vn 0.587787 0.000000 0.809016
vn 0.587787 0.000000 0.809016
vn 0.309017 0.000000 0.951057
vn 0.000000 0.000000 1.000000
vn 0.000000 0.000000 1.000000
vn -0.309017 0.000000 0.951057
vn -0.309017 0.000000 0.951057
vn -0.587788 0.000000 0.809015
vn -0.587788 0.000000 0.809015
vn -0.809018 0.000000 0.587784
vn -0.809018 0.000000 0.587784
vn -0.951056 0.000000 0.309017
vn -0.951056 0.000000 0.309017
vn -1.000000 0.000000 0.000000
vn -1.000000 0.000000 0.000000
vn -0.951056 0.000000 -0.309017
vn -0.951056 0.000000 -0.309017
vn -0.809018 0.000000 -0.587784
vn -0.809018 0.000000 -0.587784
vn -0.587788 0.000000 -0.809015
vn -0.587788 0.000000 -0.809015
vn -0.309017 0.000000 -0.951057
vn -0.309017 0.000000 -0.951057
vn 0.000000 0.000000 -1.000000
vn 0.000000 0.000000 -1.000000
vn 0.309017 0.000000 -0.951057
vn 0.309017 0.000000 -0.951057
vn 0.587787 0.000000 -0.809016
vn 0.587787 0.000000 -0.809016
vn 0.809017 0.000000 -0.587785
vn 0.809017 0.000000 -0.587785
vn 0.951057 0.000000 -0.309016
vn 0.951057 0.000000 -0.309016
vn 1.000000 0.000000 0.000002
vn 1.000000 0.000000 0.000002
vn 0.951057 0.000000 0.309016
vn 0.951057 0.000000 0.309016
vn 0.809018 0.000000 0.587784
vn 0.809018 0.000000 0.587784
vn 0.898026 -0.329257 0.291786
vn 0.944240 -0.329259 0.000001
vn 0.944240 -0.329259 0.000001
vn 0.898027 -0.329256 0.291784
vn 0.763909 -0.329238 0.555018
vn 0.763917 -0.329238 0.555007
vn 0.555021 -0.329201 0.763923
vn 0.555022 -0.329201 0.763922
vn 0.291788 -0.329167 0.898059
vn 0.291802 -0.329167 0.898054
vn 0.000007 -0.329207 0.944258
vn 0.000007 -0.329207 0.944258
vn -0.291787 -0.329256 0.898026
vn -0.291785 -0.329256 0.898027
vn -0.555014 -0.329251 0.763907
vn -0.555018 -0.329251 0.763904
vn -0.763905 -0.329251 0.555016
vn -0.763915 -0.329251 0.555003
vn -0.898023 -0.329267 0.291785
vn -0.898023 -0.329267 0.291783
vn -0.944233 -0.329277 -0.000000
vn -0.944233 -0.329277 -0.000000
vn -0.898023 -0.329268 -0.291785
vn -0.898023 -0.329268 -0.291783
vn -0.763905 -0.329251 -0.555016
vn -0.763915 -0.329251 -0.555003
vn -0.555014 -0.329251 -0.763906
vn -0.555018 -0.329251 -0.763904
vn -0.291786 -0.329256 -0.898026
vn -0.291784 -0.329256 -0.898027
vn 0.000000 -0.329254 -0.944242
vn 0.000000 -0.329254 -0.944242
vn 0.291784 -0.329259 -0.898026
vn 0.291786 -0.329259 -0.898025
vn 0.555014 -0.329250 -0.763907
vn 0.555018 -0.329250 -0.763904
vn 0.763909 -0.329236 -0.555019
vn 0.763917 -0.329236 -0.555008
vn 0.898030 -0.329246 -0.291787
vn 0.898030 -0.329246 -0.291787
vn 0.000000 1.000000 0.000000
vn 0.000000 1.000000 0.000000
vn 0.000000 1.000000 0.000000
vn 0.000000 1.000000 0.000000
vn 0.000000 1.000000 0.000000
vn 0.000000 1.000000 0.000000
vn 0.000000 1.000000 0.000000
vn 0.000000 1.000000 0.000000
vn 0.000000 1.000000 0.000000
vn 0.000000 1.000000 0.000000
vn 0.000000 1.000000 0.000000
vn 0.000000 1.000000 0.000000
vn 0.000000 1.000000 0.000000
vn 0.000000 1.000000 0.000000
vn 0.000000 1.000000 -0.000000
vn 0.000000 1.000000 -0.000000
vn 0.000000 1.000000 -0.000000
vn 0.000000 1.000000 -0.000000
vn 0.000000 1.000000 0.000000
vn 0.000000 1.000000 0.000000
vn 0.000000 1.000000 0.000000
vn 0.000000 1.000000 0.000000
vn 0.000000 1.000000 0.000000
vn 0.000000 1.000000 0.000000
vn 0.000000 -1.000000 0.000000
vn 0.000000 -1.000000 0.000000
vn 0.000000 -1.000000 0.000000
vn 0.000000 -1.000000 0.000000
vn 0.000000 -1.000000 0.000000
vn 0.000000 -1.000000 0.000000
vn 0.000000 -1.000000 0.000000
vn 0.000000 -1.000000 0.000000
vn 0.000000 -1.000000 0.000000
vn 0.000000 -1.000000 0.000000
vn 0.000000 -1.000000 0.000000
vn 0.000000 -1.000000 0.000000
vn 0.000000 -1.000000 0.000000
vn 0.000000 -1.000000 0.000000
vn 0.000000 -1.000000 0.000000
vn 0.000000 -1.000000 0.000000
vn 0.000000 -1.000000 0.000000
vn 0.000000 -1.000000 0.000000
vn 0.000000 -1.000000 0.000000
vn 0.000000 -1.000000 0.000000
vn 0.000000 -1.000000 0.000000
vn 0.000000 -1.000000 0.000000
s 1
g tin
usemtl initialShadingGroup
f 21/1/1 22/2/2 60/3/3 59/4/4
f 22/2/2 21/1/1 23/5/5 24/6/6
f 24/6/6 23/5/5 25/7/7 26/8/8
f 26/8/8 25/7/7 27/9/9 28/10/10
f 28/10/10 27/9/9 29/11/11 30/12/12
f 30/12/12 29/11/11 31/13/13 32/14/14
f 32/14/14 31/13/13 33/15/15 34/16/16
f 34/16/16 33/15/15 35/17/17 36/18/18
f 36/18/18 35/17/17 37/19/19 38/20/20
f 38/20/20 37/19/19 39/21/21 40/22/22
f 40/22/22 39/21/21 41/23/23 42/24/24
f 42/24/24 41/23/23 43/25/25 44/26/26
f 44/26/26 43/25/25 45/27/27 46/28/28
f 46/28/28 45/27/27 47/29/29 48/30/30
f 48/30/30 47/29/29 49/31/31 50/32/32
f 50/32/32 49/31/31 51/33/33 52/34/34
f 52/34/34 51/33/33 53/35/35 54/36/36
f 54/36/36 53/35/35 55/37/37 56/38/38
f 56/38/38 55/37/37 57/39/39 58/40/40
f 58/40/40 57/39/39 59/4/4 60/3/3
s 2
f 1/123/41 2/124/42 96/125/43 97/126/44
f 2/124/42 3/127/45 95/128/46 96/125/43
f 3/127/45 4/201/47 94/129/48 95/128/46
f 4/201/47 5/202/49 93/203/50 94/129/48
f 5/130/49 6/132/51 92/133/52 93/131/50
f 6/132/51 7/134/53 91/135/54 92/133/52
f 7/134/53 8/136/55 90/137/56 91/135/54
f 8/136/55 9/138/57 89/139/58 90/137/56
f 9/138/57 10/140/59 88/141/60 89/139/58
f 10/140/59 11/142/61 87/143/62 88/141/60
f 11/142/61 12/144/63 86/145/64 87/143/62
f 12/144/63 13/146/65 85/147/66 86/145/64
f 13/146/65 14/148/67 84/149/68 85/147/66
f 14/148/67 15/150/69 83/151/70 84/149/68
f 15/150/69 16/152/71 82/153/72 83/151/70
f 16/152/71 17/154/73 81/155/74 82/153/72
f 17/154/73 18/156/75 100/157/76 81/155/74
f 18/156/75 19/158/77 99/159/78 100/157/76
f 19/158/77 20/160/79 98/161/80 99/159/78
f 20/160/79 1/123/41 97/126/44 98/161/80
s 3
f 22/83/81 24/84/82 61/85/83 62/86/84
f 24/84/82 26/87/85 63/88/86 61/85/83
f 26/87/85 28/89/87 64/90/88 63/88/86
f 28/89/87 30/41/89 65/81/90 64/90/88
f 30/91/89 32/93/91 66/94/92 65/92/90
f 32/93/91 34/95/93 67/96/94 66/94/92
f 34/95/93 36/97/95 68/98/96 67/96/94
f 36/97/95 38/99/97 69/100/98 68/98/96
f 38/99/97 40/101/99 70/102/100 69/100/98
f 40/101/99 42/82/101 71/80/102 70/102/100
f 42/82/101 44/78/103 72/76/104 71/80/102
f 44/78/103 46/74/105 73/72/106 72/76/104
f 46/74/105 48/70/107 74/68/108 73/72/106
f 48/70/107 50/66/109 75/64/110 74/68/108
f 50/66/109 52/62/111 76/60/112 75/64/110
f 52/62/111 54/58/113 77/56/114 76/60/112
f 54/58/113 56/54/115 78/52/116 77/56/114
f 56/54/115 58/50/117 79/48/118 78/52/116
f 58/50/117 60/46/119 80/44/120 79/48/118
f 60/46/119 22/83/81 62/86/84 80/44/120
s 4
f 82/153/121 81/155/122 104/162/123 105/163/124
f 83/151/125 82/153/121 105/163/124 106/164/126
f 84/149/127 83/151/125 106/164/126 107/165/128
f 85/147/129 84/149/127 107/165/128 108/166/130
f 86/145/131 85/147/129 108/166/130 109/167/132
f 87/143/133 86/145/131 109/167/132 110/168/134
f 88/141/135 87/143/133 110/168/134 111/169/136
f 89/139/137 88/141/135 111/169/136 112/170/138
f 90/137/139 89/139/137 112/170/138 113/171/140
f 91/135/141 90/137/139 113/171/140 114/172/142
f 92/133/143 91/135/141 114/172/142 115/173/144
f 93/131/145 92/133/143 115/173/144 116/174/146
f 94/129/147 93/203/145 116/204/146 117/175/148
f 95/128/149 94/129/147 117/175/148 118/176/150
f 96/125/151 95/128/149 118/176/150 119/177/152
f 97/126/153 96/125/151 119/177/152 120/178/154
f 98/161/155 97/126/153 120/178/154 101/179/156
f 99/159/157 98/161/155 101/179/156 102/180/158
f 100/157/159 99/159/157 102/180/158 103/181/160
f 81/155/122 100/157/159 103/181/160 104/162/123
s 5
f 102/180/161 101/179/162 59/182/163 57/183/164
f 103/181/165 102/180/161 57/183/164 55/184/166
f 104/162/167 103/181/165 55/184/166 53/185/168
f 105/163/169 104/162/167 53/185/168 51/186/170
f 106/164/171 105/163/169 51/186/170 49/187/172
f 107/165/173 106/164/171 49/187/172 47/188/174
f 108/166/175 107/165/173 47/188/174 45/189/176
f 109/167/177 108/166/175 45/189/176 43/190/178
f 110/168/179 109/167/177 43/190/178 41/191/180
f 111/169/181 110/168/179 41/191/180 39/192/182
f 112/170/183 111/169/181 39/192/182 37/193/184
f 113/171/185 112/170/183 37/193/184 35/194/186
f 114/172/187 113/171/185 35/194/186 33/195/188
f 115/173/189 114/172/187 33/195/188 31/196/190
f 116/174/191 115/173/189 31/196/190 29/197/192
f 117/175/193 116/204/191 29/205/192 27/206/194
f 118/176/195 117/175/193 27/206/194 25/198/196
f 119/177/197 118/176/195 25/198/196 23/199/198
f 120/178/199 119/177/197 23/199/198 21/200/200
f 101/179/162 120/178/199 21/200/200 59/182/163
s off
f 70/103/201 71/104/202 80/105/203 62/106/204
s 6
f 71/104/205 72/107/206 79/108/207 80/105/208
f 72/107/206 73/109/209 78/110/210 79/108/207
f 73/109/209 74/111/211 77/112/212 78/110/210
f 74/111/211 75/113/213 76/114/214 77/112/212
s 7
f 62/106/215 61/115/216 69/116/217 70/103/218
f 61/115/216 63/117/219 68/118/220 69/116/217
f 63/117/219 64/119/221 67/120/222 68/118/220
f 64/119/221 65/121/223 66/122/224 67/120/222
s off
f 15/42/225 14/43/226 17/45/227 16/47/228
s 8
f 5/49/229 4/51/230 7/53/231 6/55/232
f 4/51/230 3/57/233 8/59/234 7/53/231
f 3/57/233 2/61/235 9/63/236 8/59/234
f 2/61/235 1/65/237 10/67/238 9/63/236
f 1/65/237 20/69/239 11/71/240 10/67/238
f 20/69/239 19/73/241 12/75/242 11/71/240
f 19/73/241 18/77/243 13/79/244 12/75/242
f 18/77/243 17/45/245 14/43/246 13/79/244
