# This file uses centimeters as units for non-parametric coordinates.

mtllib wooden_beam.mtl
g default
v -2.216758 0.000000 0.100000
v 2.216758 0.000000 0.100000
v -2.216758 0.200000 0.100000
v 2.216758 0.200000 0.100000
v -2.216758 0.200000 -0.100000
v 2.216758 0.200000 -0.100000
v -2.216758 0.000000 -0.100000
v 2.216758 0.000000 -0.100000
vt 0.208094 0.001992
vt 0.253025 0.001992
vt 0.253025 0.046923
vt 0.208094 0.046923
vt 0.259919 0.001992
vt 0.304850 0.001992
vt 0.304850 0.046923
vt 0.259919 0.046923
vt 0.052619 0.998008
vt 0.052619 0.001992
vt 0.097550 0.001992
vt 0.097550 0.998008
vt 0.156269 0.998008
vt 0.156269 0.001992
vt 0.201200 0.001992
vt 0.201200 0.998008
vt 0.000608 0.998008
vt 0.000608 0.001992
vt 0.045540 0.001992
vt 0.045540 0.998008
vt 0.104444 0.998008
vt 0.104444 0.001992
vt 0.149375 0.001992
vt 0.149375 0.998008
vn 0.000000 0.000000 1.000000
vn 0.000000 0.000000 1.000000
vn 0.000000 0.000000 1.000000
vn 0.000000 0.000000 1.000000
vn 0.000000 1.000000 0.000000
vn 0.000000 1.000000 0.000000
vn 0.000000 1.000000 0.000000
vn 0.000000 1.000000 0.000000
vn 0.000000 0.000000 -1.000000
vn 0.000000 0.000000 -1.000000
vn 0.000000 0.000000 -1.000000
vn 0.000000 0.000000 -1.000000
vn 0.000000 -1.000000 0.000000
vn 0.000000 -1.000000 0.000000
vn 0.000000 -1.000000 0.000000
vn 0.000000 -1.000000 0.000000
vn 1.000000 0.000000 0.000000
vn 1.000000 0.000000 0.000000
vn 1.000000 0.000000 0.000000
vn 1.000000 0.000000 0.000000
vn -1.000000 0.000000 0.000000
vn -1.000000 0.000000 0.000000
vn -1.000000 0.000000 0.000000
vn -1.000000 0.000000 0.000000
s off
g wooden_beam
usemtl initialShadingGroup
f 1/17/1 2/18/2 4/19/3 3/20/4
f 3/9/5 4/10/6 6/11/7 5/12/8
f 5/21/9 6/22/10 8/23/11 7/24/12
f 7/13/13 8/14/14 2/15/15 1/16/16
f 2/1/17 8/2/18 6/3/19 4/4/20
f 7/5/21 1/6/22 3/7/23 5/8/24
