# This file uses centimeters as units for non-parametric coordinates.

mtllib driftwood1.mtl
g default
v -1.446239 0.063145 0.664440
v 1.446239 0.063145 0.664440
v -1.446239 0.112474 0.664440
v 1.446239 0.112474 0.664440
v -1.473859 0.112474 0.455283
v 1.418620 0.112474 0.455283
v -1.473859 0.063145 0.455283
v 1.418620 0.063145 0.455283
v -1.446239 0.063145 0.204829
v 1.446239 0.063145 0.204829
v -1.446239 0.112474 0.204829
v 1.446239 0.112474 0.204829
v -1.494574 0.112474 -0.004327
v 1.470407 0.112474 -0.004327
v -1.494574 0.063145 -0.004327
v 1.470407 0.063145 -0.004327
v -1.446239 0.063145 -0.254781
v 1.415168 0.063145 -0.254781
v -1.446239 0.112474 -0.254781
v 1.415168 0.112474 -0.254781
v -1.404810 0.112474 -0.463938
v 1.446239 0.112474 -0.463938
v -1.404810 0.063145 -0.463938
v 1.446239 0.063145 -0.463938
v -2.353447 0.063145 0.433060
v -0.431736 0.063145 0.433060
v -2.353447 0.112474 0.433060
v -0.431736 0.112474 0.433060
v -2.187729 0.112474 0.223904
v -0.162446 0.112474 0.223904
v -2.187729 0.063145 0.223904
v -0.162446 0.063145 0.223904
v -1.062960 0.000000 0.732302
v -0.972131 0.000000 0.732302
v -1.062960 0.063576 0.732302
v -0.972131 0.063576 0.732302
v -1.062960 0.063576 -0.813308
v -0.972131 0.063576 -0.813308
v -1.062960 0.000000 -0.813308
v -0.972131 0.000000 -0.813308
v 0.805239 0.000000 0.832166
v 0.896068 0.000000 0.832166
v 0.805239 0.063576 0.832166
v 0.896068 0.063576 0.832166
v 0.805239 0.063576 -0.713444
v 0.896068 0.063576 -0.713444
v 0.805239 0.000000 -0.713444
v 0.896068 0.000000 -0.713444
vt 0.310332 0.802244
vt 0.434686 0.018322
vt 0.310102 0.018632
vt 0.312020 0.789212
vt 0.365842 0.025851
vt 0.367760 0.796431
vt 0.367530 0.012819
vt 0.380901 0.796398
vt 0.164797 0.805460
vt 0.291930 0.022007
vt 0.167346 0.022073
vt 0.167749 0.792655
vt 0.223064 0.015605
vt 0.223477 0.805502
vt 0.221548 0.002551
vt 0.236619 0.805495
vt 0.707626 0.003764
vt 0.584304 0.778755
vt 0.708887 0.778963
vt 0.710158 0.016660
vt 0.653153 0.787148
vt 0.654418 0.027604
vt 0.655062 0.800150
vt 0.641277 0.027582
vt 0.748260 0.604958
vt 0.869828 0.083870
vt 0.745250 0.082642
vt 0.740201 0.594578
vt 0.801676 0.011454
vt 0.796355 0.550981
vt 0.791377 0.003291
vt 0.809496 0.551110
vt 0.933315 0.483125
vt 0.909117 0.483191
vt 0.974449 0.483012
vt 0.950252 0.483078
vt 0.975577 0.894775
vt 0.951380 0.894841
vt 0.992514 0.894728
vt 0.934443 0.894887
vt 0.948103 0.448993
vt 0.972300 0.448958
vt 0.906968 0.449053
vt 0.931166 0.449017
vt 0.906372 0.037289
vt 0.930570 0.037254
vt 0.889435 0.037313
vt 0.947507 0.037229
vt 0.906348 0.020352
vt 0.971705 0.037194
vt 0.906993 0.465989
vt 0.890031 0.449077
vt 0.930546 0.020317
vt 0.931190 0.465954
vt 0.975624 0.911712
vt 0.910245 0.894954
vt 0.974403 0.466075
vt 0.991386 0.482966
vt 0.951426 0.911778
vt 0.950205 0.466141
vt 0.814817 0.011583
vt 0.732110 0.082512
vt 0.734952 0.074479
vt 0.804414 0.561361
vt 0.727060 0.594448
vt 0.864779 0.595806
vt 0.640011 0.787126
vt 0.722029 0.778985
vt 0.710797 0.791965
vt 0.651886 0.014708
vt 0.723299 0.016681
vt 0.585574 0.016452
vt 0.236205 0.015598
vt 0.154204 0.022080
vt 0.165831 0.009019
vt 0.220525 0.818308
vt 0.154608 0.792662
vt 0.292333 0.792589
vt 0.378983 0.025819
vt 0.296961 0.018665
vt 0.311790 0.005599
vt 0.366072 0.809464
vt 0.298879 0.789244
vt 0.436604 0.788902
vn 0.000000 0.000000 1.000000
vn 0.000000 0.000000 1.000000
vn 0.000000 0.000000 1.000000
vn 0.000000 0.000000 1.000000
vn 0.000000 1.000000 -0.000000
vn 0.000000 1.000000 -0.000000
vn 0.000000 1.000000 -0.000000
vn 0.000000 1.000000 -0.000000
vn 0.000000 0.000000 -1.000000
vn 0.000000 0.000000 -1.000000
vn 0.000000 0.000000 -1.000000
vn 0.000000 0.000000 -1.000000
vn 0.000000 -1.000000 -0.000000
vn 0.000000 -1.000000 -0.000000
vn 0.000000 -1.000000 -0.000000
vn 0.000000 -1.000000 -0.000000
vn 0.991394 0.000000 -0.130914
vn 0.991394 0.000000 -0.130914
vn 0.991394 0.000000 -0.130914
vn 0.991394 0.000000 -0.130914
vn -0.991394 0.000000 0.130914
vn -0.991394 0.000000 0.130914
vn -0.991394 0.000000 0.130914
vn -0.991394 0.000000 0.130914
vn 0.000000 0.000000 1.000000
vn 0.000000 0.000000 1.000000
vn 0.000000 0.000000 1.000000
vn 0.000000 0.000000 1.000000
vn 0.000000 1.000000 0.000000
vn 0.000000 1.000000 0.000000
vn 0.000000 1.000000 0.000000
vn 0.000000 1.000000 0.000000
vn 0.000000 0.000000 -1.000000
vn 0.000000 0.000000 -1.000000
vn 0.000000 0.000000 -1.000000
vn 0.000000 0.000000 -1.000000
vn 0.000000 -1.000000 -0.000000
vn 0.000000 -1.000000 -0.000000
vn 0.000000 -1.000000 -0.000000
vn 0.000000 -1.000000 -0.000000
vn 0.993391 0.000000 0.114782
vn 0.993391 0.000000 0.114782
vn 0.993391 0.000000 0.114782
vn 0.993391 0.000000 0.114782
vn -0.974322 0.000000 0.225157
vn -0.974322 0.000000 0.225157
vn -0.974322 0.000000 0.225157
vn -0.974322 0.000000 0.225157
vn 0.000000 0.000000 1.000000
vn 0.000000 0.000000 1.000000
vn 0.000000 0.000000 1.000000
vn 0.000000 0.000000 1.000000
vn 0.000000 1.000000 0.000000
vn 0.000000 1.000000 0.000000
vn 0.000000 1.000000 0.000000
vn 0.000000 1.000000 0.000000
vn 0.000000 0.000000 -1.000000
vn 0.000000 0.000000 -1.000000
vn 0.000000 0.000000 -1.000000
vn 0.000000 0.000000 -1.000000
vn 0.000000 -1.000000 -0.000000
vn 0.000000 -1.000000 -0.000000
vn 0.000000 -1.000000 -0.000000
vn 0.000000 -1.000000 -0.000000
vn 0.989145 0.000000 0.146944
vn 0.989145 0.000000 0.146944
vn 0.989145 0.000000 0.146944
vn 0.989145 0.000000 0.146944
vn -0.980942 0.000000 -0.194302
vn -0.980942 0.000000 -0.194302
vn -0.980942 0.000000 -0.194302
vn -0.980942 0.000000 -0.194302
vn 0.000000 0.000000 1.000000
vn 0.000000 0.000000 1.000000
vn 0.000000 0.000000 1.000000
vn 0.000000 0.000000 1.000000
vn 0.000000 1.000000 -0.000000
vn 0.000000 1.000000 -0.000000
vn 0.000000 1.000000 -0.000000
vn 0.000000 1.000000 -0.000000
vn 0.000000 0.000000 -1.000000
vn 0.000000 0.000000 -1.000000
vn 0.000000 0.000000 -1.000000
vn 0.000000 0.000000 -1.000000
vn 0.000000 -1.000000 -0.000000
vn 0.000000 -1.000000 -0.000000
vn 0.000000 -1.000000 -0.000000
vn 0.000000 -1.000000 -0.000000
vn 0.613408 0.000000 0.789766
vn 0.613408 0.000000 0.789766
vn 0.613408 0.000000 0.789766
vn 0.613408 0.000000 0.789766
vn -0.783798 0.000000 -0.621016
vn -0.783798 0.000000 -0.621016
vn -0.783798 0.000000 -0.621016
vn -0.783798 0.000000 -0.621016
vn 0.000000 0.000000 1.000000
vn 0.000000 0.000000 1.000000
vn 0.000000 0.000000 1.000000
vn 0.000000 0.000000 1.000000
vn 0.000000 1.000000 0.000000
vn 0.000000 1.000000 0.000000
vn 0.000000 1.000000 0.000000
vn 0.000000 1.000000 0.000000
vn 0.000000 0.000000 -1.000000
vn 0.000000 0.000000 -1.000000
vn 0.000000 0.000000 -1.000000
vn 0.000000 0.000000 -1.000000
vn 0.000000 -1.000000 0.000000
vn 0.000000 -1.000000 0.000000
vn 0.000000 -1.000000 0.000000
vn 0.000000 -1.000000 0.000000
vn 1.000000 0.000000 0.000000
vn 1.000000 0.000000 0.000000
vn 1.000000 0.000000 0.000000
vn 1.000000 0.000000 0.000000
vn -1.000000 0.000000 0.000000
vn -1.000000 0.000000 0.000000
vn -1.000000 0.000000 0.000000
vn -1.000000 0.000000 0.000000
vn 0.000000 0.000000 1.000000
vn 0.000000 0.000000 1.000000
vn 0.000000 0.000000 1.000000
vn 0.000000 0.000000 1.000000
vn 0.000000 1.000000 0.000000
vn 0.000000 1.000000 0.000000
vn 0.000000 1.000000 0.000000
vn 0.000000 1.000000 0.000000
vn 0.000000 0.000000 -1.000000
vn 0.000000 0.000000 -1.000000
vn 0.000000 0.000000 -1.000000
vn 0.000000 0.000000 -1.000000
vn 0.000000 -1.000000 0.000000
vn 0.000000 -1.000000 0.000000
vn 0.000000 -1.000000 0.000000
vn 0.000000 -1.000000 0.000000
vn 1.000000 0.000000 0.000000
vn 1.000000 0.000000 0.000000
vn 1.000000 0.000000 0.000000
vn 1.000000 0.000000 0.000000
vn -1.000000 0.000000 0.000000
vn -1.000000 0.000000 0.000000
vn -1.000000 0.000000 0.000000
vn -1.000000 0.000000 0.000000
s off
g driftwood1
usemtl initialShadingGroup
f 1/83/1 2/80/2 4/3/3 3/4/4
f 3/4/5 4/3/6 6/5/7 5/6/8
f 5/6/9 6/5/10 8/79/11 7/8/12
f 7/8/13 8/79/14 2/2/15 1/84/16
f 2/81/17 8/7/18 6/5/19 4/3/20
f 7/82/21 1/1/22 3/4/23 5/6/24
f 9/77/25 10/74/26 12/11/27 11/12/28
f 11/12/29 12/11/30 14/13/31 13/14/32
f 13/14/33 14/13/34 16/73/35 15/16/36
f 15/16/37 16/73/38 10/10/39 9/78/40
f 10/75/41 16/15/42 14/13/43 12/11/44
f 15/76/45 9/9/46 11/12/47 13/14/48
f 17/71/49 18/68/50 20/19/51 19/20/52
f 19/20/53 20/19/54 22/21/55 21/22/56
f 21/22/57 22/21/58 24/67/59 23/24/60
f 23/24/61 24/67/62 18/18/63 17/72/64
f 18/69/65 24/23/66 22/21/67 20/19/68
f 23/70/69 17/17/70 19/20/71 21/22/72
f 25/65/73 26/62/74 28/27/75 27/28/76
f 27/28/77 28/27/78 30/29/79 29/30/80
f 29/30/81 30/29/82 32/61/83 31/32/84
f 31/32/85 32/61/86 26/26/87 25/66/88
f 26/63/89 32/31/90 30/29/91 28/27/92
f 31/64/93 25/25/94 27/28/95 29/30/96
f 33/60/97 34/57/98 36/35/99 35/36/100
f 35/36/101 36/35/102 38/37/103 37/38/104
f 37/38/105 38/37/106 40/55/107 39/59/108
f 39/40/109 40/56/110 34/34/111 33/33/112
f 34/58/113 40/39/114 38/37/115 36/35/116
f 39/40/117 33/33/118 35/36/119 37/38/120
f 41/54/121 42/51/122 44/43/123 43/44/124
f 43/44/125 44/43/126 46/45/127 45/46/128
f 45/46/129 46/45/130 48/49/131 47/53/132
f 47/48/133 48/50/134 42/42/135 41/41/136
f 42/52/137 48/47/138 46/45/139 44/43/140
f 47/48/141 41/41/142 43/44/143 45/46/144
