# This file uses centimeters as units for non-parametric coordinates.

mtllib driftwood2.mtl
g default
v -1.523876 0.063145 -0.484587
v 0.397835 0.063145 -0.484587
v -1.523876 0.112474 -0.484587
v 0.397835 0.112474 -0.484587
v -1.358158 0.112474 -0.693743
v 0.667125 0.112474 -0.693743
v -1.358158 0.063145 -0.693743
v 0.667125 0.063145 -0.693743
v -1.062960 0.000000 0.326072
v -0.972131 0.000000 0.326072
v -1.062960 0.063576 0.326072
v -0.972131 0.063576 0.326072
v -1.062960 0.063576 -1.219538
v -0.972131 0.063576 -1.219538
v -1.062960 0.000000 -1.219538
v -0.972131 0.000000 -1.219538
vt 0.748260 0.604958
vt 0.869828 0.083870
vt 0.745250 0.082642
vt 0.740201 0.594578
vt 0.801676 0.011454
vt 0.796355 0.550981
vt 0.791377 0.003291
vt 0.809496 0.551110
vt 0.933315 0.483125
vt 0.909117 0.483191
vt 0.974449 0.483012
vt 0.950252 0.483078
vt 0.975577 0.894775
vt 0.951380 0.894841
vt 0.992514 0.894728
vt 0.934443 0.894887
vt 0.975624 0.911712
vt 0.910245 0.894954
vt 0.974403 0.466075
vt 0.991386 0.482966
vt 0.951426 0.911778
vt 0.950205 0.466141
vt 0.814817 0.011583
vt 0.732110 0.082512
vt 0.734952 0.074479
vt 0.804414 0.561361
vt 0.727060 0.594448
vt 0.864779 0.595806
vn 0.000000 0.000000 1.000000
vn 0.000000 0.000000 1.000000
vn 0.000000 0.000000 1.000000
vn 0.000000 0.000000 1.000000
vn 0.000000 1.000000 -0.000000
vn 0.000000 1.000000 -0.000000
vn 0.000000 1.000000 -0.000000
vn 0.000000 1.000000 -0.000000
vn 0.000000 0.000000 -1.000000
vn 0.000000 0.000000 -1.000000
vn 0.000000 0.000000 -1.000000
vn 0.000000 0.000000 -1.000000
vn 0.000000 -1.000000 -0.000000
vn 0.000000 -1.000000 -0.000000
vn 0.000000 -1.000000 -0.000000
vn 0.000000 -1.000000 -0.000000
vn 0.613408 0.000000 0.789766
vn 0.613408 0.000000 0.789766
vn 0.613408 0.000000 0.789766
vn 0.613408 0.000000 0.789766
vn -0.783798 0.000000 -0.621016
vn -0.783798 0.000000 -0.621016
vn -0.783798 0.000000 -0.621016
vn -0.783798 0.000000 -0.621016
vn 0.000000 0.000000 1.000000
vn 0.000000 0.000000 1.000000
vn 0.000000 0.000000 1.000000
vn 0.000000 0.000000 1.000000
vn 0.000000 1.000000 0.000000
vn 0.000000 1.000000 0.000000
vn 0.000000 1.000000 0.000000
vn 0.000000 1.000000 0.000000
vn 0.000000 0.000000 -1.000000
vn 0.000000 0.000000 -1.000000
vn 0.000000 0.000000 -1.000000
vn 0.000000 0.000000 -1.000000
vn 0.000000 -1.000000 0.000000
vn 0.000000 -1.000000 0.000000
vn 0.000000 -1.000000 0.000000
vn 0.000000 -1.000000 0.000000
vn 1.000000 0.000000 0.000000
vn 1.000000 0.000000 0.000000
vn 1.000000 0.000000 0.000000
vn 1.000000 0.000000 0.000000
vn -1.000000 0.000000 0.000000
vn -1.000000 0.000000 0.000000
vn -1.000000 0.000000 0.000000
vn -1.000000 0.000000 0.000000
s off
g driftwood2
usemtl initialShadingGroup
f 1/27/1 2/24/2 4/3/3 3/4/4
f 3/4/5 4/3/6 6/5/7 5/6/8
f 5/6/9 6/5/10 8/23/11 7/8/12
f 7/8/13 8/23/14 2/2/15 1/28/16
f 2/25/17 8/7/18 6/5/19 4/3/20
f 7/26/21 1/1/22 3/4/23 5/6/24
f 9/22/25 10/19/26 12/11/27 11/12/28
f 11/12/29 12/11/30 14/13/31 13/14/32
f 13/14/33 14/13/34 16/17/35 15/21/36
f 15/16/37 16/18/38 10/10/39 9/9/40
f 10/20/41 16/15/42 14/13/43 12/11/44
f 15/16/45 9/9/46 11/12/47 13/14/48
