# This file uses centimeters as units for non-parametric coordinates.

mtllib duct_tape.mtl
g default
v 0.000000 -0.036481 0.097282
v 0.058670 -0.036481 0.101650
v 0.000000 0.036481 0.097282
v 0.058670 0.036481 0.101650
v 0.002208 0.036481 0.096931
v 0.058670 0.036481 0.101300
v 0.002208 -0.036481 0.096931
v 0.058670 -0.036481 0.101300
v 0.041276 -0.036481 -0.013411
v 0.035111 -0.036481 -0.025510
v 0.025510 -0.036481 -0.035111
v 0.013411 -0.036481 -0.041276
v -0.000000 -0.036481 -0.043400
v -0.013411 -0.036481 -0.041276
v -0.025510 -0.036481 -0.035111
v -0.035111 -0.036481 -0.025510
v -0.041276 -0.036481 -0.013411
v -0.043400 -0.036481 -0.000000
v -0.041276 -0.036481 0.013411
v -0.035111 -0.036481 0.025510
v -0.025510 -0.036481 0.035111
v -0.013411 -0.036481 0.041276
v -0.000000 -0.036481 0.043400
v 0.013411 -0.036481 0.041276
v 0.025510 -0.036481 0.035111
v 0.035111 -0.036481 0.025510
v 0.041276 -0.036481 0.013411
v 0.043400 -0.036481 -0.000000
v 0.092521 -0.036481 -0.030062
v 0.078703 -0.036481 -0.057181
v 0.057181 -0.036481 -0.078703
v 0.030062 -0.036481 -0.092521
v 0.000000 -0.036481 -0.097282
v -0.030062 -0.036481 -0.092521
v -0.057181 -0.036481 -0.078703
v -0.078703 -0.036481 -0.057181
v -0.092521 -0.036481 -0.030062
v -0.097282 -0.036481 0.000000
v -0.092521 -0.036481 0.030062
v -0.078703 -0.036481 0.057181
v -0.057181 -0.036481 0.078703
v -0.030062 -0.036481 0.092521
v -0.000000 -0.036481 0.097282
v 0.030062 -0.036481 0.092521
v 0.057181 -0.036481 0.078703
v 0.078703 -0.036481 0.057181
v 0.092521 -0.036481 0.030062
v 0.097282 -0.036481 0.000000
v 0.092521 0.036481 -0.030062
v 0.078703 0.036481 -0.057181
v 0.057181 0.036481 -0.078703
v 0.030062 0.036481 -0.092521
v 0.000000 0.036481 -0.097282
v -0.030062 0.036481 -0.092521
v -0.057181 0.036481 -0.078703
v -0.078703 0.036481 -0.057181
v -0.092521 0.036481 -0.030062
v -0.097282 0.036481 0.000000
v -0.092521 0.036481 0.030062
v -0.078703 0.036481 0.057181
v -0.057181 0.036481 0.078703
v -0.030062 0.036481 0.092521
v -0.000000 0.036481 0.097282
v 0.030062 0.036481 0.092521
v 0.057181 0.036481 0.078703
v 0.078703 0.036481 0.057181
v 0.092521 0.036481 0.030062
v 0.097282 0.036481 0.000000
v 0.041276 0.036481 -0.013411
v 0.035111 0.036481 -0.025510
v 0.025510 0.036481 -0.035111
v 0.013411 0.036481 -0.041276
v -0.000000 0.036481 -0.043400
v -0.013411 0.036481 -0.041276
v -0.025510 0.036481 -0.035111
v -0.035111 0.036481 -0.025510
v -0.041276 0.036481 -0.013411
v -0.043400 0.036481 -0.000000
v -0.041276 0.036481 0.013411
v -0.035111 0.036481 0.025510
v -0.025510 0.036481 0.035111
v -0.013411 0.036481 0.041276
v -0.000000 0.036481 0.043400
v 0.013411 0.036481 0.041276
v 0.025510 0.036481 0.035111
v 0.035111 0.036481 0.025510
v 0.041276 0.036481 0.013411
v 0.043400 0.036481 -0.000000
v 0.039649 0.036481 0.098455
v 0.039649 0.036481 0.098104
v 0.039649 -0.036481 0.098104
v 0.039649 -0.036481 0.098455
v 0.022479 0.036481 0.097282
v 0.022479 0.036481 0.096931
v 0.022479 -0.036481 0.096931
v 0.022479 -0.036481 0.097282
vt 0.682021 0.623657
vt 0.700077 0.585054
vt 0.541927 0.565432
vt 0.549933 0.609397
vt 0.543591 0.565290
vt 0.551178 0.609442
vt 0.699018 0.584908
vt 0.680756 0.623570
vt 0.693934 0.514463
vt 0.694221 0.515086
vt 0.565181 0.497081
vt 0.564606 0.497325
vt 0.126908 0.513843
vt 0.139587 0.488960
vt 0.049934 0.423824
vt 0.021515 0.479599
vt 0.159334 0.469213
vt 0.094197 0.379560
vt 0.184217 0.456535
vt 0.149972 0.351141
vt 0.211800 0.452166
vt 0.211800 0.341349
vt 0.239383 0.456535
vt 0.273627 0.351141
vt 0.264265 0.469213
vt 0.329402 0.379560
vt 0.284013 0.488960
vt 0.373665 0.423824
vt 0.296691 0.513843
vt 0.402084 0.479599
vt 0.301060 0.541426
vt 0.411877 0.541426
vt 0.296691 0.569009
vt 0.402084 0.603254
vt 0.284013 0.593892
vt 0.373665 0.659029
vt 0.264265 0.613639
vt 0.329402 0.703292
vt 0.239383 0.626318
vt 0.273627 0.731711
vt 0.211800 0.630686
vt 0.211800 0.741503
vt 0.184217 0.626318
vt 0.149972 0.731711
vt 0.159334 0.613639
vt 0.094197 0.703292
vt 0.139587 0.593892
vt 0.049934 0.659029
vt 0.126908 0.569009
vt 0.021515 0.603254
vt 0.122540 0.541426
vt 0.011723 0.541426
vt 0.021515 0.479599
vt 0.049934 0.423824
vt 0.139587 0.488960
vt 0.126908 0.513843
vt 0.094197 0.379560
vt 0.159334 0.469213
vt 0.149972 0.351141
vt 0.184217 0.456535
vt 0.211800 0.341349
vt 0.211800 0.452166
vt 0.273627 0.351141
vt 0.239383 0.456535
vt 0.329402 0.379560
vt 0.264266 0.469213
vt 0.373665 0.423824
vt 0.284013 0.488960
vt 0.402084 0.479599
vt 0.296691 0.513843
vt 0.411877 0.541426
vt 0.301060 0.541426
vt 0.402084 0.603253
vt 0.296691 0.569009
vt 0.373665 0.659029
vt 0.284013 0.593892
vt 0.329402 0.703292
vt 0.264266 0.613639
vt 0.273627 0.731711
vt 0.239383 0.626318
vt 0.211800 0.741503
vt 0.211800 0.630686
vt 0.149972 0.731711
vt 0.184217 0.626318
vt 0.094197 0.703292
vt 0.159334 0.613639
vt 0.049934 0.659029
vt 0.139587 0.593892
vt 0.021515 0.603253
vt 0.126908 0.569009
vt 0.011723 0.541426
vt 0.122540 0.541426
vt 0.254247 0.177618
vt 0.278822 0.322382
vt 0.254247 0.322382
vt 0.549600 0.040602
vt 0.547306 0.531784
vt 0.548687 0.531579
vt 0.701483 0.550839
vt 0.702832 0.551188
vt 0.598455 0.040602
vt 0.672027 0.177618
vt 0.672027 0.322382
vt 0.647452 0.177618
vt 0.647452 0.322382
vt 0.622876 0.177618
vt 0.598455 0.159398
vt 0.549600 0.159398
vt 0.647309 0.040602
vt 0.647309 0.159398
vt 0.696163 0.040602
vt 0.696163 0.159398
vt 0.745018 0.040602
vt 0.745018 0.159398
vt 0.793872 0.040602
vt 0.793872 0.159398
vt 0.842727 0.040602
vt 0.842727 0.159398
vt 0.891581 0.040602
vt 0.891581 0.159398
vt 0.940435 0.040602
vt 0.940435 0.159398
vt 0.012202 0.040602
vt 0.012202 0.159398
vt 0.061056 0.040602
vt 0.061056 0.159398
vt 0.109911 0.040602
vt 0.109911 0.159398
vt 0.158765 0.040602
vt 0.158765 0.159398
vt 0.207620 0.040602
vt 0.207620 0.159398
vt 0.256474 0.040602
vt 0.256474 0.159398
vt 0.305328 0.040602
vt 0.305328 0.159398
vt 0.354183 0.040602
vt 0.354183 0.159398
vt 0.403037 0.040602
vt 0.403037 0.159398
vt 0.451891 0.040602
vt 0.451891 0.159398
vt 0.500746 0.040602
vt 0.500746 0.159398
vt 0.365001 0.159398
vt 0.364005 0.040602
vt 0.696602 0.322382
vt 0.721178 0.322382
vt 0.721178 0.177618
vt 0.696602 0.177618
vt 0.745753 0.322382
vt 0.745753 0.177618
vt 0.278822 0.177618
vt 0.303398 0.322382
vt 0.303398 0.177618
vt 0.327973 0.322382
vt 0.327973 0.177618
vt 0.352548 0.322382
vt 0.352548 0.177618
vt 0.377124 0.322382
vt 0.377124 0.177618
vt 0.401699 0.322382
vt 0.401699 0.177618
vt 0.426274 0.322382
vt 0.426274 0.177618
vt 0.450849 0.322382
vt 0.450849 0.177618
vt 0.475425 0.322382
vt 0.475425 0.177618
vt 0.500000 0.322382
vt 0.500000 0.177618
vt 0.524575 0.322382
vt 0.524575 0.177618
vt 0.549151 0.322382
vt 0.549151 0.177618
vt 0.573726 0.322382
vt 0.573726 0.177618
vt 0.598301 0.322382
vt 0.598301 0.177618
vt 0.622876 0.322382
vt 0.256799 0.040852
vt 0.297661 0.040602
vt 0.298657 0.159398
vt 0.256799 0.159398
vt 0.329942 0.159398
vt 0.328946 0.040602
vt 0.989290 0.040602
vt 0.989290 0.159398
vt 0.694719 0.515469
vt 0.565610 0.496548
vn 0.000000 0.000000 1.000000
vn -0.029564 0.000000 0.999563
vn -0.029564 0.000000 0.999563
vn 0.000000 0.000000 1.000000
vn 0.000000 1.000000 -0.000001
vn 0.000000 1.000000 0.000000
vn 0.000000 1.000000 0.000000
vn 0.000000 1.000000 -0.000001
vn 0.000000 0.000000 -1.000000
vn 0.031306 0.000000 -0.999510
vn 0.031306 0.000000 -0.999510
vn 0.000000 0.000000 -1.000000
vn 0.000000 -1.000000 -0.000001
vn 0.000000 -1.000000 -0.000001
vn 0.000000 -1.000000 -0.000001
vn 0.000000 -1.000000 -0.000001
vn 1.000000 0.000000 0.000000
vn 1.000000 0.000000 0.000000
vn 1.000000 0.000000 0.000000
vn 1.000000 0.000000 0.000000
vn 0.000000 -1.000000 0.000000
vn 0.000000 -1.000000 -0.000000
vn 0.000000 -1.000000 0.000000
vn 0.000000 -1.000000 0.000000
vn 0.000000 -1.000000 -0.000000
vn 0.000000 -1.000000 -0.000000
vn 0.000000 -1.000000 0.000000
vn 0.000000 -1.000000 0.000000
vn 0.000000 -1.000000 0.000000
vn 0.000000 -1.000000 0.000000
vn 0.000000 -1.000000 -0.000000
vn 0.000000 -1.000000 -0.000000
vn 0.000000 -1.000000 -0.000000
vn 0.000000 -1.000000 -0.000000
vn 0.000000 -1.000000 0.000000
vn 0.000000 -1.000000 0.000000
vn 0.000000 -1.000000 0.000000
vn 0.000000 -1.000000 0.000000
vn 0.000000 -1.000000 0.000000
vn 0.000000 -1.000000 0.000000
vn 0.000000 -1.000000 0.000000
vn 0.000000 -1.000000 0.000000
vn 0.000000 -1.000000 0.000000
vn 0.000000 -1.000000 0.000000
vn 0.000000 -1.000000 0.000000
vn 0.000000 -1.000000 0.000000
vn 0.000000 -1.000000 0.000000
vn 0.000000 -1.000000 0.000000
vn 0.000000 -1.000000 0.000000
vn 0.000000 -1.000000 0.000000
vn 0.000000 -1.000000 -0.000000
vn 0.000000 -1.000000 -0.000000
vn 0.000000 -1.000000 -0.000000
vn 0.000000 -1.000000 -0.000000
vn 0.000000 -1.000000 -0.000000
vn 0.000000 -1.000000 -0.000000
vn 0.000000 -1.000000 -0.000000
vn 0.000000 -1.000000 -0.000000
vn 0.000000 -1.000000 0.000000
vn 0.000000 -1.000000 0.000000
vn 0.951057 0.000000 -0.309016
vn 0.809017 0.000000 -0.587785
vn 0.809017 0.000000 -0.587785
vn 0.951057 0.000000 -0.309016
vn 0.587785 0.000000 -0.809017
vn 0.587785 0.000000 -0.809017
vn 0.309017 0.000000 -0.951057
vn 0.309017 0.000000 -0.951057
vn 0.000000 0.000000 -1.000000
vn 0.000000 0.000000 -1.000000
vn -0.309017 0.000000 -0.951057
vn -0.309017 0.000000 -0.951057
vn -0.587785 0.000000 -0.809017
vn -0.587785 0.000000 -0.809017
vn -0.809017 0.000000 -0.587785
vn -0.809017 0.000000 -0.587785
vn -0.951057 0.000000 -0.309017
vn -0.951057 0.000000 -0.309017
vn -1.000000 0.000000 0.000000
vn -1.000000 0.000000 0.000000
vn -0.951057 0.000000 0.309017
vn -0.951057 0.000000 0.309017
vn -0.809017 0.000000 0.587785
vn -0.809017 0.000000 0.587785
vn -0.587785 0.000000 0.809017
vn -0.587785 0.000000 0.809017
vn -0.309017 0.000000 0.951057
vn -0.309017 0.000000 0.951057
vn 0.000000 0.000000 1.000000
vn 0.000000 0.000000 1.000000
vn 0.309017 0.000000 0.951057
vn 0.309017 0.000000 0.951057
vn 0.587785 0.000000 0.809017
vn 0.587785 0.000000 0.809017
vn 0.809017 0.000000 0.587785
vn 0.809017 0.000000 0.587785
vn 0.951057 0.000000 0.309017
vn 0.951057 0.000000 0.309017
vn 1.000000 0.000000 0.000001
vn 1.000000 0.000000 0.000001
vn 0.000000 1.000000 0.000000
vn 0.000000 1.000000 0.000000
vn 0.000000 1.000000 0.000000
vn 0.000000 1.000000 0.000000
vn 0.000000 1.000000 -0.000000
vn 0.000000 1.000000 -0.000000
vn 0.000000 1.000000 0.000000
vn 0.000000 1.000000 0.000000
vn 0.000000 1.000000 0.000000
vn 0.000000 1.000000 0.000000
vn 0.000000 1.000000 0.000000
vn 0.000000 1.000000 0.000000
vn 0.000000 1.000000 -0.000000
vn 0.000000 1.000000 -0.000000
vn 0.000000 1.000000 0.000000
vn 0.000000 1.000000 0.000000
vn 0.000000 1.000000 0.000000
vn 0.000000 1.000000 0.000000
vn 0.000000 1.000000 0.000000
vn 0.000000 1.000000 0.000000
vn 0.000000 1.000000 -0.000000
vn 0.000000 1.000000 -0.000000
vn 0.000000 1.000000 0.000000
vn 0.000000 1.000000 -0.000000
vn 0.000000 1.000000 0.000000
vn 0.000000 1.000000 0.000000
vn 0.000000 1.000000 0.000000
vn 0.000000 1.000000 0.000000
vn 0.000000 1.000000 0.000000
vn 0.000000 1.000000 0.000000
vn 0.000000 1.000000 0.000000
vn 0.000000 1.000000 0.000000
vn 0.000000 1.000000 0.000000
vn 0.000000 1.000000 0.000000
vn 0.000000 1.000000 0.000000
vn 0.000000 1.000000 0.000000
vn 0.000000 1.000000 -0.000000
vn 0.000000 1.000000 -0.000000
vn 0.000000 1.000000 -0.000000
vn 0.000000 1.000000 -0.000000
vn 0.587785 0.000000 0.809017
vn 0.309016 0.000000 0.951057
vn 0.309016 0.000000 0.951057
vn 0.587785 0.000000 0.809017
vn 0.000000 0.000000 1.000000
vn 0.000000 0.000000 1.000000
vn -0.309017 0.000000 0.951057
vn -0.309017 0.000000 0.951057
vn -0.587785 0.000000 0.809017
vn -0.587785 0.000000 0.809017
vn -0.809017 0.000000 0.587786
vn -0.809017 0.000000 0.587786
vn -0.951057 0.000000 0.309016
vn -0.951057 0.000000 0.309016
vn -1.000000 0.000000 -0.000001
vn -1.000000 0.000000 -0.000001
vn -0.951057 0.000000 -0.309016
vn -0.951057 0.000000 -0.309016
vn -0.809017 0.000000 -0.587785
vn -0.809017 0.000000 -0.587785
vn -0.587785 0.000000 -0.809017
vn -0.587785 0.000000 -0.809017
vn -0.309016 0.000000 -0.951057
vn -0.309016 0.000000 -0.951057
vn -0.000000 0.000000 -1.000000
vn -0.000000 0.000000 -1.000000
vn 0.309016 0.000000 -0.951057
vn 0.309016 0.000000 -0.951057
vn 0.587785 0.000000 -0.809017
vn 0.587785 0.000000 -0.809017
vn 0.809017 0.000000 -0.587785
vn 0.809017 0.000000 -0.587785
vn 0.951057 0.000000 -0.309016
vn 0.951057 0.000000 -0.309016
vn 1.000000 0.000000 -0.000000
vn 1.000000 0.000000 -0.000000
vn 0.951057 0.000000 0.309016
vn 0.951057 0.000000 0.309016
vn 0.809017 0.000000 0.587785
vn 0.809017 0.000000 0.587785
vn 0.000000 1.000000 0.000002
vn 0.000000 1.000000 0.000003
vn 0.000000 1.000000 0.000003
vn 0.000000 1.000000 0.000002
vn 0.119830 0.000000 -0.992795
vn 0.119830 0.000000 -0.992795
vn 0.165681 0.000000 -0.986179
vn 0.165681 0.000000 -0.986179
vn 0.000000 -1.000000 0.000000
vn 0.000000 -1.000000 0.000000
vn 0.000000 -1.000000 0.000000
vn 0.000000 -1.000000 0.000000
vn -0.119830 0.000000 0.992795
vn -0.119830 0.000000 0.992795
vn -0.165681 0.000000 0.986179
vn -0.165681 0.000000 0.986179
s 1
g duct_tape
usemtl initialShadingGroup
f 1/181/1 96/182/2 93/183/3 3/184/4
s 2
f 3/4/5 93/3/6 94/5/7 5/6/8
s 3
f 5/6/9 94/5/10 95/7/11 7/8/12
s 4
f 7/8/13 95/7/14 96/2/15 1/1/16
s off
f 2/9/17 8/10/18 6/11/19 4/190/20
s 5
f 9/13/21 10/14/22 30/15/23 29/16/24
f 10/14/22 11/17/25 31/18/26 30/15/23
f 11/17/25 12/19/27 32/20/28 31/18/26
f 12/19/27 13/21/29 33/22/30 32/20/28
f 13/21/29 14/23/31 34/24/32 33/22/30
f 14/23/31 15/25/33 35/26/34 34/24/32
f 15/25/33 16/27/35 36/28/36 35/26/34
f 16/27/35 17/29/37 37/30/38 36/28/36
f 17/29/37 18/31/39 38/32/40 37/30/38
f 18/31/39 19/33/41 39/34/42 38/32/40
f 19/33/41 20/35/43 40/36/44 39/34/42
f 20/35/43 21/37/45 41/38/46 40/36/44
f 21/37/45 22/39/47 42/40/48 41/38/46
f 22/39/47 23/41/49 43/42/50 42/40/48
f 23/41/49 24/43/51 44/44/52 43/42/50
f 24/43/51 25/45/53 45/46/54 44/44/52
f 25/45/53 26/47/55 46/48/56 45/46/54
f 26/47/55 27/49/57 47/50/58 46/48/56
f 27/49/57 28/51/59 48/52/60 47/50/58
f 28/51/59 9/13/21 29/16/24 48/52/60
s 6
f 29/96/61 30/101/62 50/107/63 49/108/64
f 30/101/62 31/109/65 51/110/66 50/107/63
f 31/109/65 32/111/67 52/112/68 51/110/66
f 32/111/67 33/113/69 53/114/70 52/112/68
f 33/113/69 34/115/71 54/116/72 53/114/70
f 34/115/71 35/117/73 55/118/74 54/116/72
f 35/117/73 36/119/75 56/120/76 55/118/74
f 36/119/75 37/121/77 57/122/78 56/120/76
f 37/121/77 38/187/79 58/188/80 57/122/78
f 38/123/79 39/125/81 59/126/82 58/124/80
f 39/125/81 40/127/83 60/128/84 59/126/82
f 40/127/83 41/129/85 61/130/86 60/128/84
f 41/129/85 42/131/87 62/132/88 61/130/86
f 42/131/87 43/133/89 63/134/90 62/132/88
f 43/133/89 44/135/91 64/136/92 63/134/90
f 44/135/91 45/137/93 65/138/94 64/136/92
f 45/137/93 46/139/95 66/140/96 65/138/94
f 46/139/95 47/141/97 67/142/98 66/140/96
f 47/141/97 48/143/99 68/144/100 67/142/98
f 48/143/99 29/96/61 49/108/64 68/144/100
s 7
f 49/53/101 50/54/102 70/55/103 69/56/104
f 50/54/102 51/57/105 71/58/106 70/55/103
f 51/57/105 52/59/107 72/60/108 71/58/106
f 52/59/107 53/61/109 73/62/110 72/60/108
f 53/61/109 54/63/111 74/64/112 73/62/110
f 54/63/111 55/65/113 75/66/114 74/64/112
f 55/65/113 56/67/115 76/68/116 75/66/114
f 56/67/115 57/69/117 77/70/118 76/68/116
f 57/69/117 58/71/119 78/72/120 77/70/118
f 58/71/119 59/73/121 79/74/122 78/72/120
f 59/73/121 60/75/123 80/76/124 79/74/122
f 60/75/123 61/77/125 81/78/126 80/76/124
f 61/77/125 62/79/127 82/80/128 81/78/126
f 62/79/127 63/81/129 83/82/130 82/80/128
f 63/81/129 64/83/131 84/84/132 83/82/130
f 64/83/131 65/85/133 85/86/134 84/84/132
f 65/85/133 66/87/135 86/88/136 85/86/134
f 66/87/135 67/89/137 87/90/138 86/88/136
f 67/89/137 68/91/139 88/92/140 87/90/138
f 68/91/139 49/53/101 69/56/104 88/92/140
s 8
f 15/147/141 14/148/142 74/149/143 75/150/144
f 14/148/142 13/151/145 73/152/146 74/149/143
f 13/95/145 12/94/147 72/153/148 73/93/146
f 12/94/147 11/154/149 71/155/150 72/153/148
f 11/154/149 10/156/151 70/157/152 71/155/150
f 10/156/151 9/158/153 69/159/154 70/157/152
f 9/158/153 28/160/155 88/161/156 69/159/154
f 28/160/155 27/162/157 87/163/158 88/161/156
f 27/162/157 26/164/159 86/165/160 87/163/158
f 26/164/159 25/166/161 85/167/162 86/165/160
f 25/166/161 24/168/163 84/169/164 85/167/162
f 24/168/163 23/170/165 83/171/166 84/169/164
f 23/170/165 22/172/167 82/173/168 83/171/166
f 22/172/167 21/174/169 81/175/170 82/173/168
f 21/174/169 20/176/171 80/177/172 81/175/170
f 20/176/171 19/178/173 79/179/174 80/177/172
f 19/178/173 18/180/175 78/106/176 79/179/174
f 18/180/175 17/105/177 77/104/178 78/106/176
f 17/105/177 16/103/179 76/102/180 77/104/178
f 16/103/179 15/147/141 75/150/144 76/102/180
s 2
f 89/97/181 4/12/182 6/11/183 90/98/184
s 3
f 91/99/185 90/98/186 6/11/187 8/10/188
s 4
f 92/100/189 91/99/190 8/10/191 2/189/192
s 1
f 89/185/193 92/186/194 2/146/195 4/145/196
s 2
f 93/3/6 89/97/181 90/98/184 94/5/7
s 3
f 95/7/11 94/5/10 90/98/186 91/99/185
s 4
f 96/2/15 95/7/14 91/99/190 92/100/189
s 1
f 93/183/3 96/182/2 92/186/194 89/185/193
