# This file uses centimeters as units for non-parametric coordinates.

mtllib stick.mtl
g default
v 0.013070 0.000000 -0.009496
v 0.004992 0.000000 -0.015365
v -0.004992 0.000000 -0.015365
v -0.013070 0.000000 -0.009496
v -0.016156 0.000000 0.000000
v -0.013070 0.000000 0.009496
v -0.004992 0.000000 0.015365
v 0.004992 0.000000 0.015365
v 0.013070 0.000000 0.009496
v 0.016156 0.000000 0.000000
v 0.013070 1.405622 -0.009496
v 0.004992 1.405622 -0.015365
v -0.004992 1.405622 -0.015365
v -0.013070 1.405622 -0.009496
v -0.016156 1.405622 0.000000
v -0.013070 1.405622 0.009496
v -0.004992 1.405622 0.015365
v 0.004992 1.405622 0.015365
v 0.013070 1.405622 0.009496
v 0.016156 1.405622 0.000000
v 0.011318 0.905622 0.016817
v 0.003240 0.905622 0.022686
v -0.006745 0.905622 0.022686
v -0.014822 0.905622 0.016817
v -0.017908 0.905622 0.007321
v -0.014822 0.905622 -0.002175
v -0.006745 0.905622 -0.008044
v 0.003240 0.905622 -0.008044
v 0.011318 0.905622 -0.002175
v 0.014404 0.905622 0.007321
v 0.013070 0.577207 0.009496
v 0.004992 0.577207 0.015365
v -0.004992 0.577207 0.015365
v -0.013070 0.577207 0.009496
v -0.016156 0.577207 0.000000
v -0.013070 0.577207 -0.009496
v -0.004992 0.577207 -0.015365
v 0.004992 0.577207 -0.015365
v 0.013070 0.577207 -0.009496
v 0.016156 0.577207 0.000000
v 0.019235 0.299065 -0.000131
v 0.011157 0.299065 0.005738
v 0.001172 0.299065 0.005738
v -0.006906 0.299065 -0.000131
v -0.009991 0.299065 -0.009627
v -0.006906 0.299065 -0.019123
v 0.001172 0.299065 -0.024992
v 0.011157 0.299065 -0.024992
v 0.019235 0.299065 -0.019123
v 0.022320 0.299065 -0.009627
vt 0.233474 0.027186
vt 0.233474 0.042282
vt 0.040228 0.042326
vt 0.233474 0.164039
vt 0.040228 0.164039
vt 0.233474 0.149141
vt 0.040228 0.148984
vt 0.233474 0.134003
vt 0.040228 0.134408
vt 0.233474 0.119153
vt 0.040228 0.118944
vt 0.233474 0.104057
vt 0.040228 0.104209
vt 0.233474 0.088306
vt 0.040228 0.088459
vt 0.233474 0.073029
vt 0.040228 0.072885
vt 0.040228 0.057790
vt 0.233474 0.057511
vt 0.948493 0.057511
vt 0.948493 0.073029
vt 0.625410 0.073029
vt 0.625410 0.057511
vt 0.948493 0.088307
vt 0.625410 0.088307
vt 0.948493 0.104057
vt 0.625410 0.104057
vt 0.948493 0.119153
vt 0.625410 0.119153
vt 0.948493 0.134003
vt 0.625410 0.134003
vt 0.948493 0.149141
vt 0.625410 0.149141
vt 0.948493 0.164039
vt 0.625410 0.164039
vt 0.625410 0.042282
vt 0.413200 0.073029
vt 0.413200 0.057511
vt 0.413200 0.088307
vt 0.413200 0.104057
vt 0.413200 0.119153
vt 0.413200 0.134003
vt 0.413200 0.149141
vt 0.413200 0.164039
vt 0.413200 0.042282
vt 0.978707 0.974599
vt 0.978707 0.963344
vt 0.972092 0.983705
vt 0.972092 0.954239
vt 0.961388 0.987183
vt 0.961388 0.950761
vt 0.950684 0.954239
vt 0.948493 0.011436
vt 0.944068 0.963344
vt 0.948493 0.027186
vt 0.233474 0.011436
vt 0.040228 0.027072
vt 0.040228 0.012879
vt 0.625410 0.011436
vt 0.625410 0.027186
vt 0.413200 0.011436
vt 0.413200 0.027186
vt 0.948493 0.042282
vt 0.950684 0.983705
vt 0.944068 0.974599
vn 0.310901 -0.000010 -0.950442
vn 0.807334 -0.000008 -0.590095
vn 0.810100 -0.035535 -0.585213
vn 0.307014 -0.036940 -0.950988
vn -0.303257 0.000002 -0.952909
vn -0.314420 -0.024066 -0.948979
vn -0.804421 0.000011 -0.594060
vn -0.813401 -0.001958 -0.581701
vn -0.999979 0.000005 -0.006530
vn -0.999763 0.020812 0.006353
vn -0.810669 -0.000008 0.585504
vn -0.806881 0.035612 0.589639
vn -0.307159 -0.000010 0.951658
vn -0.310623 0.036976 0.949814
vn 0.314709 0.000002 0.949188
vn 0.303369 0.024409 0.952560
vn 0.813560 0.000011 0.581481
vn 0.804580 0.002531 0.593839
vn 0.999772 -0.020405 0.006302
vn 0.999978 0.000005 -0.006585
vn 0.999990 -0.003547 -0.002882
vn 0.810607 0.005733 0.585563
vn 0.807069 -0.000010 0.590457
vn 0.999994 -0.000013 0.003474
vn 0.310457 0.012829 0.950501
vn 0.307237 0.000006 0.951633
vn -0.309204 0.015006 0.950877
vn -0.308747 0.000014 0.951144
vn -0.810091 0.011422 0.586192
vn -0.807645 0.000002 0.589669
vn -0.999990 0.003462 -0.002878
vn -0.999994 -0.000013 0.003479
vn -0.807391 -0.005809 -0.589988
vn -0.810951 -0.000010 -0.585115
vn -0.307518 -0.012853 -0.951456
vn -0.310786 0.000006 -0.950480
vn 0.308759 -0.015006 -0.951022
vn 0.309285 0.000014 -0.950969
vn 0.807829 -0.011459 -0.589306
vn 0.810377 0.000002 -0.585909
vn 0.808153 -0.005971 0.588942
vn 0.999915 0.013018 0.000746
vn 0.307425 -0.022595 0.951304
vn -0.309947 -0.030549 0.950263
vn -0.808863 -0.026912 0.587381
vn -0.999914 -0.013083 0.000747
vn -0.809852 0.005756 -0.586605
vn -0.310450 0.022473 -0.950324
vn 0.307800 0.030634 -0.950958
vn 0.808583 0.027032 -0.587761
vn 0.000000 1.000000 0.000018
vn 0.000000 1.000000 0.000018
vn 0.000000 1.000000 0.000018
vn 0.000000 1.000000 0.000018
vn 0.000000 1.000000 0.000007
vn 0.000000 1.000000 0.000010
vn 0.000000 1.000000 0.000010
vn 0.000000 1.000000 0.000007
vn 0.000000 1.000000 0.000010
vn 0.000000 1.000000 0.000010
vn 0.000000 1.000000 -0.000018
vn 0.000000 1.000000 -0.000018
s 1
g stick
usemtl initialShadingGroup
f 48/1/1 49/2/2 1/3/3 2/57/4
f 47/56/5 48/1/1 2/57/4 3/58/6
f 46/6/7 47/4/5 3/5/6 4/7/8
f 45/8/9 46/6/7 4/7/8 5/9/10
f 44/10/11 45/8/9 5/9/10 6/11/12
f 43/12/13 44/10/11 6/11/12 7/13/14
f 42/14/15 43/12/13 7/13/14 8/15/16
f 41/16/17 42/14/15 8/15/16 9/17/18
f 41/16/17 9/17/18 10/18/19 50/19/20
f 49/2/2 50/19/20 10/18/19 1/3/3
f 20/20/21 19/21/22 21/22/23 30/23/24
f 19/21/22 18/24/25 22/25/26 21/22/23
f 18/24/25 17/26/27 23/27/28 22/25/26
f 17/26/27 16/28/29 24/29/30 23/27/28
f 16/28/29 15/30/31 25/31/32 24/29/30
f 15/30/31 14/32/33 26/33/34 25/31/32
f 14/32/33 13/34/35 27/35/36 26/33/34
f 13/53/35 12/55/37 28/60/38 27/59/36
f 12/55/37 11/63/39 29/36/40 28/60/38
f 11/63/39 20/20/21 30/23/24 29/36/40
f 30/23/24 21/22/23 31/37/41 40/38/42
f 21/22/23 22/25/26 32/39/43 31/37/41
f 22/25/26 23/27/28 33/40/44 32/39/43
f 23/27/28 24/29/30 34/41/45 33/40/44
f 24/29/30 25/31/32 35/42/46 34/41/45
f 25/31/32 26/33/34 36/43/47 35/42/46
f 26/33/34 27/35/36 37/44/48 36/43/47
f 27/59/36 28/60/38 38/62/49 37/61/48
f 28/60/38 29/36/40 39/45/50 38/62/49
f 29/36/40 30/23/24 40/38/42 39/45/50
f 40/38/42 31/37/41 41/16/17 50/19/20
f 31/37/41 32/39/43 42/14/15 41/16/17
f 32/39/43 33/40/44 43/12/13 42/14/15
f 33/40/44 34/41/45 44/10/11 43/12/13
f 34/41/45 35/42/46 45/8/9 44/10/11
f 35/42/46 36/43/47 46/6/7 45/8/9
f 36/43/47 37/44/48 47/4/5 46/6/7
f 37/61/48 38/62/49 48/1/1 47/56/5
f 38/62/49 39/45/50 49/2/2 48/1/1
f 39/45/50 40/38/42 50/19/20 49/2/2
s off
f 17/64/51 18/65/52 19/54/53 20/52/54
s 3
f 20/52/55 11/51/56 16/50/57 17/64/58
f 11/51/56 12/49/59 15/48/60 16/50/57
f 12/49/59 13/47/61 14/46/62 15/48/60
